<?xml version="1.0" standalone="no"?><!DOCTYPE svg PUBLIC "-//W3C//DTD SVG 1.1//EN" "http://www.w3.org/Graphics/SVG/1.1/DTD/svg11.dtd"><svg t="1769180272967" class="icon" viewBox="0 0 1024 1024" version="1.1" xmlns="http://www.w3.org/2000/svg" p-id="26465" xmlns:xlink="http://www.w3.org/1999/xlink" width="200" height="200"><path d="M170.666667 768h234.666666v53.333333a117.333333 117.333333 0 0 1-234.666666 0V768zM341.333333 261.12c85.333333 0 128 122.88 128 208.213333 0 42.666667-21.333333 85.333333-42.666666 149.333334L405.333333 682.666667H170.666667c0-42.666667-21.333333-106.666667-21.333334-213.333334S234.581333 261.12 341.333333 261.12z m514.304 340.394667l-9.258666 52.522666a117.333333 117.333333 0 0 1-231.082667-40.746666l9.216-52.48 231.125333 40.704zM775.594667 72.746667c105.130667 18.517333 171.434667 133.333333 152.917333 238.378666-18.517333 105.045333-50.645333 164.352-58.026667 206.378667l-231.125333-40.746667-9.898667-66.730666c-9.898667-66.730667-23.466667-112.469333-16.085333-154.453334 14.805333-84.053333 78.165333-197.632 162.218667-182.826666z" p-id="26466" fill="#ffffff"></path></svg>