<?xml version="1.0" standalone="no"?><!DOCTYPE svg PUBLIC "-//W3C//DTD SVG 1.1//EN" "http://www.w3.org/Graphics/SVG/1.1/DTD/svg11.dtd"><svg t="1769329790264" class="icon" viewBox="0 0 1024 1024" version="1.1" xmlns="http://www.w3.org/2000/svg" p-id="7368" xmlns:xlink="http://www.w3.org/1999/xlink" width="200" height="200"><path d="M899.909632 287.0272v5.48864c-0.319488 0.507904-0.82944 0.98304-0.9216 1.523712-1.615872 9.629696-7.315456 16.054272-15.607808 20.748288-14.585856 8.26368-29.046784 16.7424-43.544576 25.153536-1.349632 0.782336-2.598912 1.734656-4.581376 3.072 1.910784 0.684032 2.840576 1.087488 3.813376 1.357824 9.375744 2.594816 18.855936 4.859904 28.114944 7.817216 14.03904 4.48512 21.573632 18.905088 17.774592 33.144832-3.698688 13.8752-17.498112 22.761472-31.647744 19.470336-15.833088-3.682304-31.473664-8.206336-47.190016-12.386304-11.700224-3.108864-23.386112-6.248448-35.08224-9.375744 0.759808 1.871872 1.970176 2.873344 3.268608 3.733504 19.564544 12.969984 39.1168 25.960448 58.732544 38.856704 8.05888 5.298176 12.904448 12.582912 13.398016 22.188032 0.550912 10.747904-3.895296 19.380224-13.139968 24.97536-9.394176 5.681152-19.183616 5.668864-28.53888-0.139264-9.189376-5.709824-18.106368-11.862016-27.129856-17.840128-20.084736-13.293568-40.153088-26.607616-60.24192-39.892992-1.787904-1.1776-3.674112-3.158016-5.869568 0.280576 5.021696 5.265408 10.113024 10.47552 15.060992 15.824896 6.443008 6.965248 8.851456 15.259648 6.842368 24.496128-2.332672 10.737664-8.947712 17.917952-19.61984 20.752384-10.235904 2.721792-19.320832 0.161792-26.78784-7.415808-7.389184-7.493632-14.729216-15.038464-21.899264-22.740992-2.246656-2.412544-3.936256-2.85696-6.914048-1.083392-13.355008 7.948288-26.86976 15.624192-40.312832 23.433216-1.179648 0.684032-2.240512 1.585152-3.354624 2.38592l0.41984 1.220608c1.605632 0 3.207168-0.004096 4.816896 0 10.06592 0.004096 20.13184-0.096256 30.19776 0.049152 14.669824 0.21504 26.345472 12.367872 26.345472 27.224064 0.006144 14.870528-11.65312 27.019264-26.331136 27.236352-10.21952 0.149504-20.436992 0.03072-30.65856 0.065536-1.527808 0.01024-3.055616 0.217088-4.589568 0.331776 1.05472 1.92512 2.260992 2.768896 3.534848 3.50208 13.051904 7.563264 26.206208 14.958592 39.120896 22.75328 3.627008 2.185216 5.627904 1.71008 8.380416-1.306624a583.5776 583.5776 0 0 1 21.895168-22.740992c9.080832-8.943616 22.484992-10.346496 33.273856-3.86048 10.553344 6.344704 16.128 19.523584 11.78624 31.254528-2.125824 5.748736-6.682624 10.704896-10.60864 15.648768-3.248128 4.096-7.184384 7.645184-10.811392 11.442176l1.030144 1.759232c1.81248-0.63488 3.848192-0.925696 5.402624-1.947648a20094.94528 20094.94528 0 0 0 84.652032-56.041472c8.445952-5.625856 17.328128-7.442432 26.843136-3.612672 10.057728 4.052992 15.935488 11.859968 17.102848 22.484992 1.214464 11.040768-3.254272 19.994624-12.552192 26.200064-19.781632 13.201408-39.643136 26.271744-59.465728 39.411712-1.302528 0.864256-2.516992 1.865728-3.76832 2.799616 2.011136 0.45056 3.602432 0.129024 5.165056-0.288768 24.817664-6.64576 49.618944-13.355008 74.461184-19.90656 3.342336-0.882688 6.940672-1.636352 10.323968-1.353728 13.568 1.132544 24.28928 11.780096 25.36448 24.65792 1.15712 13.881344-7.143424 25.694208-20.803584 29.472768-8.05888 2.228224-16.154624 4.315136-24.223744 6.498304-1.634304 0.442368-3.227648 1.032192-5.904384 1.896448 2.514944 1.564672 3.885056 2.461696 5.306368 3.284992 14.764032 8.564736 29.519872 17.13152 44.30848 25.6512 7.686144 4.427776 12.734464 10.72128 14.34624 19.582976 0.126976 0.700416 0.671744 1.318912 1.021952 1.974272v5.48864c-0.299008 0.530432-0.792576 1.032192-0.862208 1.585152-2.433024 18.91328-24.346624 30.1568-43.390976 18.251776-14.075904-8.800256-28.678144-16.76288-43.055104-25.081856-1.396736-0.80896-2.859008-1.50528-5.163008-2.711552 0.516096 2.541568 0.763904 4.13696 1.171456 5.689344 2.086912 7.940096 4.12672 15.89248 6.356992 23.791616 1.619968 5.730304 1.77152 11.34592-0.114688 17.043456-3.903488 11.784192-14.415872 19.085312-27.275264 18.817024-11.835392-0.249856-22.0672-8.736768-25.452544-21.303296-6.756352-25.102336-13.428736-50.225152-20.154368-75.33568-0.362496-1.349632-0.917504-2.650112-1.675264-4.808704-0.516096 1.449984-0.770048 1.859584-0.796672 2.277376-1.542144 24.784896-3.20512 49.559552-4.542464 74.350592-0.790528 14.626816-12.93312 26.513408-27.498496 26.329088-15.071232-0.192512-27.045888-12.054528-26.963968-27.11552 0.047104-8.677376 0.559104-17.362944 1.087488-26.032128 1.646592-26.908672 3.432448-53.809152 5.025792-80.719872 0.088064-1.45408-1.069056-2.983936-1.646592-4.476928a230.4 230.4 0 0 0-1.642496 0.29696c-1.9968 6.79936-4.0448 13.586432-5.96992 20.40832-1.724416 6.0928-5.074944 11.044864-10.125312 14.815232-9.158656 6.836224-21.643264 7.135232-31.289344 0.825344-9.56416-6.258688-14.389248-18.057216-11.511808-29.093888 2.797568-10.737664 5.890048-21.397504 9.029632-32.04096 0.8704-2.940928 0.45056-4.646912-2.41664-6.262784-13.930496-7.862272-27.72992-15.962112-41.59488-23.943168-0.966656-0.55296-2.066432-0.858112-4.253696-1.748992 1.349632 2.490368 2.095104 3.930112 2.899968 5.337088 4.777984 8.32512 9.863168 16.492544 14.22336 25.034752 2.156544 4.231168 3.889152 9.080832 4.222976 13.76256 0.8704 12.2368-7.360512 23.252992-19.161088 26.978304-11.773952 3.71712-24.469504-0.720896-31.072256-11.362304-5.541888-8.92928-10.573824-18.176-15.85152-27.267072-0.712704-1.222656-1.572864-2.357248-2.772992-4.139008-0.309248 1.419264-0.54272 1.978368-0.54272 2.537472-0.022528 16.777216 0.032768 33.55648-0.077824 50.333696-0.018432 2.914304 1.611776 3.47136 3.856384 4.032512 10.917888 2.701312 21.909504 5.177344 32.692224 8.343552 13.293568 3.903488 20.686848 16.795648 18.520064 31.193088-1.90464 12.664832-13.47584 22.542336-26.83904 22.020096-5.834752-0.227328-11.61216-2.08896-17.401856-3.26656-3.463168-0.700416-6.903808-1.511424-10.354688-2.275328l-0.913408 1.683456c1.523712 1.267712 2.869248 2.879488 4.595712 3.74784 30.328832 15.306752 60.7232 30.486528 91.062272 45.776896 12.978176 6.537216 18.93376 19.712 15.040512 32.782336-4.974592 16.687104-22.966272 24.487936-38.924288 16.613376-21.03296-10.379264-41.938944-21.006336-62.908416-31.50848-1.542144-0.774144-3.147776-1.419264-4.726784-2.127872 0.571392 2.205696 1.744896 3.520512 2.988032 4.769792 18.302976 18.368512 36.728832 36.614144 54.880256 55.126016 10.958848 11.169792 10.774528 27.93472 0.06144 38.643712-10.89536 10.889216-27.72992 10.88512-38.989824-0.106496-6.107136-5.965824-12.066816-12.091392-18.118656-18.118656-1.114112-1.110016-2.357248-2.095104-4.476928-3.96288v6.066176c0 17.08032 0.055296 34.164736-0.018432 51.247104-0.065536 13.645824-7.960576 24.532992-20.054016 27.951104-1.728512 0.489472-3.448832 1.036288-5.173248 1.55648h-4.57728c-0.382976-0.243712-0.73728-0.59392-1.161216-0.7168-17.78688-5.124096-24.080384-13.467648-24.08448-31.983616 0-16.16896 0.01024-32.333824-0.012288-48.49664 0-1.542144-0.186368-3.080192-0.344064-5.533696-2.025472 1.90464-3.258368 3.01056-4.427776 4.175872-6.148096 6.141952-12.15488 12.439552-18.450432 18.427904-13.412352 12.7488-35.155968 8.943616-43.405312-7.467008-5.537792-11.01824-3.362816-23.197696 6.023168-32.651264 18.049024-18.180096 36.171776-36.286464 54.25152-54.439936 1.153024-1.161216 2.158592-2.465792 3.231744-3.708928-2.367488-0.016384-3.9936 0.73728-5.588992 1.538048-20.826112 10.436608-41.619456 20.95104-62.492672 31.297536-13.039616 6.46144-27.774976 2.603008-35.55328-9.048064-9.345024-14.006272-4.210688-32.342016 11.476992-40.27392 25.694208-12.988416 51.46624-25.821184 77.205504-38.72768 5.1712-2.588672 10.401792-5.076992 15.458304-7.8848 1.236992-0.688128 1.886208-2.433024 2.807808-3.692544a136.226816 136.226816 0 0 1-1.10592-1.056768c-6.025216 1.513472-11.99104 3.418112-18.100224 4.419584-5.0176 0.8192-10.412032 1.572864-15.284224 0.587776-12.62592-2.53952-21.123072-13.549568-21.372928-26.22464-0.239616-12.515328 8.271872-23.529472 21.198848-27.009024a839.50592 839.50592 0 0 1 30.519296-7.616512c3.188736-0.733184 4.057088-2.187264 4.030464-5.312512-0.14336-15.859712-0.055296-31.721472-0.08192-47.581184-0.004096-1.09568-0.268288-2.195456-0.546816-4.335616-1.357824 2.158592-2.174976 3.375104-2.90816 4.640768-4.952064 8.574976-9.80992 17.207296-14.852096 25.729024-5.71392 9.637888-14.430208 14.784512-25.481216 13.821952-21.327872-1.865728-32.08192-23.058432-21.62688-41.762816 4.759552-8.507392 9.713664-16.910336 14.559232-25.370624 0.77824-1.35168 1.476608-2.746368 2.21184-4.122624-1.787904-0.12288-2.873344 0.280576-3.87072 0.851968-13.729792 7.907328-27.389952 15.939584-41.207808 23.687168-3.06176 1.71008-3.506176 3.45088-2.56 6.59456 3.06176 10.184704 6.025216 20.40832 8.708096 30.69952 3.926016 15.08352-4.288512 29.566976-18.853888 33.718272-14.559232 4.153344-29.149184-3.97312-33.712128-18.853888-1.738752-5.666816-3.186688-11.421696-4.993024-17.07008-0.413696-1.306624-1.736704-2.318336-2.646016-3.467264-0.585728 1.548288-1.72032 3.117056-1.665024 4.644864 0.344064 8.82688 0.970752 17.63328 1.507328 26.44992 0.720896 11.862016 1.490944 23.713792 2.162688 35.57376 0.851968 15.054848 2.048 30.103552 2.306048 45.170688 0.243712 14.088192-12.036096 25.686016-26.53184 26.114048-14.014464 0.415744-26.9312-11.245568-27.748352-25.096192-0.987136-16.726016-1.890304-33.458176-2.90816-50.178048-0.536576-8.906752-1.23904-17.799168-1.869824-26.69568l-1.200128-0.206848c-1.550336 5.593088-3.137536 11.184128-4.642816 16.791552-5.763072 21.428224-11.270144 42.928128-17.332224 64.270336-4.091904 14.411776-18.468864 22.401024-32.477184 18.796544-14.809088-3.815424-23.359488-17.463296-20.197376-32.438272 0.937984-4.4544 2.271232-8.82688 3.40992-13.238272 1.538048-5.965824 3.06176-11.9296 4.888576-19.044352-2.555904 1.343488-4.01408 2.056192-5.41696 2.863104-15.306752 8.843264-30.486528 17.895424-45.922304 26.497024-16.605184 9.244672-36.17792 0.155648-40.251392-18.341888-0.221184-1.009664-0.743424-1.95584-1.122304-2.932736v-5.492736c0.315392-0.505856 0.82944-0.980992 0.9216-1.519616 1.619968-9.623552 7.315456-16.052224 15.607808-20.752384 14.585856-8.257536 29.046784-16.744448 43.542528-25.155584 1.345536-0.780288 2.598912-1.728512 4.552704-3.047424-1.595392-0.610304-2.236416-0.923648-2.914304-1.112064-9.811968-2.721792-19.75296-5.054464-29.425664-8.220672-13.717504-4.487168-21.08416-18.999296-17.342464-33.01376 3.713024-13.887488 17.598464-22.81472 31.660032-19.503104 15.828992 3.719168 31.469568 8.228864 47.190016 12.41088 11.69408 3.115008 23.382016 6.250496 35.072 9.381888-0.894976-1.970176-2.244608-3.039232-3.67616-3.987456-19.437568-12.886016-38.862848-25.796608-58.34752-38.612992-8.04864-5.296128-12.886016-12.597248-13.367296-22.206464-0.538624-10.74176 3.917824-19.36384 13.162496-24.961024 9.402368-5.689344 19.197952-5.65248 28.530688 0.169984 9.957376 6.209536 19.638272 12.86144 29.425664 19.341312 19.318784 12.787712 38.627328 25.604096 57.950208 38.381568 1.78176 1.175552 3.672064 3.158016 5.844992-0.29696-5.036032-5.279744-10.123264-10.498048-15.077376-15.839232-6.467584-6.965248-8.83712-15.26784-6.838272-24.502272 2.287616-10.543104 8.742912-17.717248 19.202048-20.62336 10.358784-2.871296 19.621888-0.4096 27.232256 7.315456 7.385088 7.497728 14.72512 15.044608 21.891072 22.751232 2.240512 2.41664 3.934208 2.859008 6.909952 1.087488 13.355008-7.952384 26.871808-15.630336 40.312832-23.433216 1.1776-0.68608 2.236416-1.5872 3.34848-2.387968l-0.401408-1.21856h-4.837376c-9.914368-0.006144-19.830784 0.08192-29.745152-0.036864-15.038464-0.182272-26.78784-12.210176-26.78784-27.250688s11.759616-27.066368 26.800128-27.242496c10.061824-0.118784 20.13184-0.018432 30.199808-0.0512 1.527808-0.004096 3.057664-0.21504 4.581376-0.331776-0.956416-1.787904-2.013184-2.598912-3.15392-3.262464-13.441024-7.800832-26.959872-15.480832-40.308736-23.437312-2.97984-1.773568-4.6592-1.349632-6.914048 1.067008-7.489536 8.022016-15.0528 16.001024-22.890496 23.683072-8.8576 8.681472-22.208512 9.947136-32.923648 3.571712-10.276864-6.109184-15.214592-18.630656-12.26752-30.44352 1.712128-6.877184 6.244352-11.716608 10.964992-16.525312 3.67616-3.745792 7.276544-7.575552 10.909696-11.370496-0.33792-0.585728-0.6656-1.169408-0.995328-1.755136-1.816576 0.628736-3.858432 0.913408-5.412864 1.93536a18498.748416 18498.748416 0 0 0-84.647936 56.055808c-8.450048 5.632-17.33632 7.419904-26.843136 3.620864-10.07616-4.016128-15.945728-11.84768-17.117184-22.462464-1.224704-11.036672 3.213312-19.98848 12.529664-26.198016 19.781632-13.193216 39.643136-26.277888 59.461632-39.421952 1.31072-0.868352 2.52928-1.867776 3.790848-2.807808-2.000896-0.446464-3.59424-0.149504-5.156864 0.270336-24.819712 6.647808-49.618944 13.359104-74.463232 19.912704-3.340288 0.882688-6.938624 1.656832-10.319872 1.353728-13.703168-1.226752-24.29952-11.743232-25.378816-24.633344-1.161216-13.891584 7.141376-25.704448 20.79744-29.472768 8.060928-2.22208 16.15872-4.319232 24.22784-6.5024 1.634304-0.44032 3.227648-1.026048 5.904384-1.890304-2.510848-1.562624-3.883008-2.463744-5.302272-3.28704-14.764032-8.56064-29.526016-17.127424-44.30848-25.647104-7.686144-4.429824-12.734464-10.72128-14.34624-19.585024-0.126976-0.694272-0.673792-1.314816-1.021952-1.970176v-5.48864c0.299008-0.528384 0.790528-1.030144 0.864256-1.585152 2.412544-18.874368 24.315904-30.16704 43.382784-18.253824 13.944832 8.722432 28.411904 16.596992 42.657792 24.836096 1.533952 0.882688 3.115008 1.681408 5.568512 3.004416-0.524288-2.588672-0.765952-4.182016-1.175552-5.738496-2.082816-7.938048-4.118528-15.89248-6.354944-23.78752-1.619968-5.728256-1.794048-11.350016 0.096256-17.0496 3.909632-11.790336 14.399488-19.070976 27.260928-18.812928 11.85792 0.23552 22.071296 8.656896 25.473024 21.254144 6.76864 25.092096 13.428736 50.21696 20.154368 75.319296 0.362496 1.36192 0.903168 2.67264 1.632256 4.786176 0.536576-1.339392 0.811008-1.73056 0.833536-2.131968 0.960512-15.962112 1.865728-31.932416 2.848768-47.894528 0.618496-10.031104 0.70656-20.150272 2.174976-30.058496 2.048-13.869056 15.271936-24.006656 28.295168-22.747136 15.49312 1.497088 26.017792 12.617728 25.68192 27.871232-0.29696 13.24032-1.175552 26.478592-1.947648 39.704576-0.694272 11.85792-1.62816 23.699456-2.398208 35.55328-0.667648 10.336256-1.312768 20.67456-1.77152 31.019008-0.0512 1.20832 1.144832 2.473984 1.759232 3.715072 0.847872-1.009664 2.105344-1.890304 2.476032-3.057664 1.867776-5.943296 3.383296-11.999232 5.25312-17.942528 4.564992-14.495744 19.2512-22.468608 33.630208-18.386944 14.665728 4.163584 22.81472 18.845696 18.7392 34.203648-2.725888 10.283008-5.76512 20.484096-8.787968 30.687232-0.815104 2.760704-0.288768 4.374528 2.379776 5.888 14.04928 7.95648 27.979776 16.128 41.971712 24.193024 0.89088 0.512 1.941504 0.733184 3.274752 1.216512-0.200704-0.995328-0.192512-1.323008-0.32768-1.56672-5.279744-9.261056-10.87488-18.364416-15.734784-27.844608-2.301952-4.489216-4.18816-9.629696-4.524032-14.594048-0.825344-12.220416 7.528448-23.164928 19.36384-26.847232 11.677696-3.637248 24.377344 0.94208 30.976 11.646976 5.511168 8.943616 10.551296 18.180096 15.8208 27.277312 0.681984 1.175552 1.507328 2.271232 2.799616 4.196352 0.268288-1.777664 0.438272-2.367488 0.438272-2.957312 0.018432-16.625664-0.04096-33.245184 0.073728-49.866752 0.018432-2.752512-1.220608-3.678208-3.600384-4.263936-10.921984-2.680832-21.905408-5.175296-32.69632-8.31488-14.917632-4.345856-22.827008-20.197376-17.874944-34.922496 4.786176-14.237696 18.839552-21.297152 34.656256-17.39776 6.275072 1.544192 12.53376 3.135488 18.80064 4.706304 0.344064-0.48128 0.690176-0.960512 1.03424-1.445888-1.112064-1.210368-2.004992-2.838528-3.371008-3.56352-6.864896-3.633152-13.852672-7.028736-20.795392-10.504192-23.830528-11.948032-47.68768-23.844864-71.489536-35.858432-12.939264-6.53312-18.843648-19.734528-14.913536-32.827392 5.056512-16.838656 22.962176-24.377344 39.368704-16.289792 20.891648 10.30144 41.658368 20.86912 62.48448 31.30368 1.536 0.768 3.14368 1.398784 4.718592 2.091008-0.618496-2.22208-1.806336-3.540992-3.059712-4.800512-18.190336-18.25792-36.47488-36.425728-54.554624-54.792192-11.184128-11.358208-11.167744-28.168192-0.319488-38.981632 11.010048-10.973184 27.879424-10.795008 39.313408 0.47104 5.75488 5.677056 11.411456 11.454464 17.139712 17.158144 1.3312 1.327104 2.772992 2.541568 5.105664 4.66944v-6.162432c0-17.078272-0.0512-34.16064 0.022528-51.238912 0.057344-13.643776 7.944192-24.516608 20.04992-27.94496 1.732608-0.493568 3.448832-1.03424 5.173248-1.554432h4.57728c0.385024 0.24576 0.743424 0.59392 1.161216 0.712704 17.795072 5.126144 24.08448 13.467648 24.08448 31.997952 0.004096 16.166912-0.01024 32.333824 0.012288 48.504832 0.004096 1.536 0.188416 3.074048 0.288768 4.610048l1.23904 0.473088c7.0144-7.194624 13.940736-14.465024 21.06368-21.553152 7.68-7.647232 17.014784-10.0352 27.324416-7.012352 20.176896 5.904384 26.271744 30.574592 11.280384 45.871104-18.044928 18.41152-36.364288 36.544512-54.55872 54.806528-1.23904 1.243136-2.410496 2.56-3.612672 3.833856l0.620544 0.933888c1.581056-0.708608 3.188736-1.353728 4.73088-2.127872 20.699136-10.366976 41.422848-20.690944 62.066688-31.166464 6.240256-3.166208 12.693504-4.327424 19.453952-2.78528 11.087872 2.537472 19.560448 11.481088 20.9408 21.682176 1.773568 13.082624-3.28704 23.652352-14.436352 29.485056-9.050112 4.734976-18.23744 9.193472-27.359232 13.770752-21.788672 10.930176-43.587584 21.835776-65.327104 32.858112-1.59744 0.811008-2.746368 2.506752-4.104192 3.790848 0.366592 0.516096 0.733184 1.036288 1.103872 1.550336 5.992448-1.476608 11.921408-3.315712 17.99168-4.319232 5.021696-0.82944 10.412032-1.693696 15.286272-0.74752 12.869632 2.504704 21.594112 13.73184 21.67808 26.454016 0.077824 12.78976-8.61184 23.672832-21.774336 27.066368-10.006528 2.576384-20.031488 5.115904-30.103552 7.436288-2.95936 0.681984-3.876864 2.031616-3.856384 4.988928 0.118784 16.017408 0.047104 32.032768 0.079872 48.04608 0 1.056768 0.31744 2.113536 0.649216 4.175872 1.349632-2.267136 2.125824-3.551232 2.881536-4.85376 5.044224-8.697856 9.910272-17.506304 15.167488-26.079232 5.947392-9.705472 14.87872-14.587904 26.187776-13.1072 20.914176 2.742272 30.79168 23.328768 20.412416 41.7792-4.78208 8.503296-9.725952 16.910336-14.563328 25.376768-0.755712 1.318912-1.349632 2.729984-2.301952 4.685824 1.419264-0.354304 1.900544-0.366592 2.271232-0.581632 14.655488-8.441856 29.263872-16.965632 43.976704-25.305088 2.789376-1.581056 2.265088-3.49184 1.615872-5.777408-3.035136-10.672128-6.191104-21.315584-8.996864-32.049152-2.881536-11.044864 1.933312-22.8352 11.48928-29.10208 16.091136-10.545152 36.067328-2.480128 41.844736 16.92672 1.896448 6.361088 3.690496 12.752896 5.5296 19.126272 0.546816 0.100352 1.09568 0.206848 1.642496 0.311296 0.587776-1.492992 1.624064-2.967552 1.671168-4.472832 0.09216-3.026944-0.393216-6.070272-0.571392-9.111552-0.745472-12.62592-1.472512-25.25184-2.19136-37.871616-1.140736-19.922944-2.615296-39.831552-3.28704-59.772928-0.48128-14.303232 9.873408-25.040896 24.608768-26.861568 13.088768-1.615872 25.843712 7.245824 28.831744 20.647936 1.247232 5.593088 1.39264 11.462656 1.742848 17.227776 1.091584 18.092032 2.01728 36.1984 3.074048 54.298624 0.18432 3.162112 0.68608 6.30784 1.040384 9.459712 2.594816-5.459968 4.130816-10.969088 5.615616-16.498688 5.793792-21.581824 11.350016-43.229184 17.442816-64.72704 3.567616-12.591104 14.80704-19.808256 28.29312-19.167232 11.60192 0.555008 22.267904 9.598976 24.158208 21.891072 0.847872 5.476352-0.192512 11.43808-1.335296 16.979968-1.759232 8.554496-4.349952 16.934912-6.914048 26.617856 2.6112-1.359872 4.06528-2.048 5.459968-2.852864 15.310848-8.83712 30.50496-17.872896 45.93664-26.494976 16.57856-9.259008 36.204544-0.182272 40.27392 18.296832 0.231424 1.015808 0.755712 1.959936 1.134592 2.93888z m0 0" fill="#ffffff" p-id="7369"></path></svg>