<?xml version="1.0" standalone="no"?><!DOCTYPE svg PUBLIC "-//W3C//DTD SVG 1.1//EN" "http://www.w3.org/Graphics/SVG/1.1/DTD/svg11.dtd"><svg t="1770020173901" class="icon" viewBox="0 0 1024 1024" version="1.1" xmlns="http://www.w3.org/2000/svg" p-id="18955" xmlns:xlink="http://www.w3.org/1999/xlink" width="200" height="200"><path d="M512 1024C229.224296 1024 0 794.775704 0 512S229.224296 0 512 0s512 229.224296 512 512-229.224296 512-512 512z m0-56.888889c251.354074 0 455.111111-203.757037 455.111111-455.111111S763.354074 56.888889 512 56.888889 56.888889 260.645926 56.888889 512s203.757037 455.111111 455.111111 455.111111z m0-75.851852C302.535111 891.259259 132.740741 721.464889 132.740741 512S302.535111 132.740741 512 132.740741s379.259259 169.79437 379.259259 379.259259-169.79437 379.259259-379.259259 379.259259z" fill="#f89303" p-id="18956"></path></svg>