<?xml version="1.0" standalone="no"?><!DOCTYPE svg PUBLIC "-//W3C//DTD SVG 1.1//EN" "http://www.w3.org/Graphics/SVG/1.1/DTD/svg11.dtd"><svg t="1769395619727" class="icon" viewBox="0 0 1402 1024" version="1.1" xmlns="http://www.w3.org/2000/svg" p-id="11664" xmlns:xlink="http://www.w3.org/1999/xlink" width="273.828125" height="200"><path d="M713.153187 518.127411c-0.951394 0-1.902789 0-2.890085-0.017951-86.056321-1.148854-134.523586-30.839541-181.429128-59.542932-49.939234-30.552328-97.131989-59.435227-200.600624-61.517525-186.491265-4.559513-253.986419 92.913542-256.732897 97.060186-11.847554 17.609773-35.919628 22.564204-53.726861 11.12952-17.879035-11.542389-23.174533-35.022087-11.721897-52.86522 3.608119-5.582711 90.508129-135.941702 323.779279-132.423338 124.704477 2.549019 185.898887 39.976518 239.89501 73.024012 43.046111 26.351831 77.045 47.174804 141.596217 48.036445 42.543488 1.005247 76.937295-18.722725 120.503981-43.20767 63.743429-35.758071 143.122038-80.347955 275.832589-73.472783 138.221459 7.05468 233.773774 49.562266 284.000221 126.373906 15.20436 15.042803 14.701737 39.150779-0.502623 54.229484-15.20436 15.060754-40.353486 14.791491-55.539895-0.251312-3.877381-3.84148-6.498204-7.826566-9.262633-12.045013-35.865776-54.875714-110.828479-85.5896-222.716057-91.315917-109.912986-5.457055-172.830676 29.565032-233.46861 63.581871-46.65423 26.172323-94.906085 53.224237-157.015987 53.224237zM713.117285 758.094225c-0.951394 0-1.902789-0.017951-2.854183-0.017951-86.056321-1.148854-134.523586-30.839541-181.429128-59.542933-49.939234-30.570279-97.114038-59.453178-200.600624-61.517524C142.585775 633.676961 74.264882 729.929358 71.500453 734.058051c-11.847554 17.609773-35.919628 22.582155-53.726861 11.12952-17.879035-11.542389-23.174533-35.022087-11.721897-52.86522 3.590168-5.582711 90.920999-137.575229 323.779279-132.405387 124.704477 2.531068 185.898887 39.976518 239.89501 73.024012 43.046111 26.351831 77.080902 47.174804 141.596217 48.036445 42.022914 0.915493 76.901394-18.740676 120.468079-43.207669 63.797281-35.793973 143.15794-80.45566 275.868491-73.490734 138.221459 7.05468 233.809676 49.580217 284.000221 126.409807 15.20436 15.060754 14.665835 39.16873-0.538525 54.229484s-40.317584 14.77354-55.539895-0.305164c-3.877381-3.823529-6.462302-7.790664-9.226731-12.009112-35.865776-54.893665-110.792577-85.60755-222.716057-91.333868-109.984789-5.528858-172.830676 29.565032-233.504512 63.581872-46.65423 26.190274-94.870183 53.242188-157.015987 53.242188zM713.153187 1024c-0.951394 0-1.902789 0-2.890085-0.017951-86.056321-1.148854-134.523586-30.839541-181.429128-59.542932-49.939234-30.552328-97.131989-59.435227-200.600624-61.517525-186.114297-4.613366-253.986419 92.913542-256.732897 97.060186-11.847554 17.573871-35.919628 22.564204-53.726861 11.12952-17.879035-11.542389-23.174533-35.022087-11.721897-52.865221 3.590168-5.618613 90.920999-137.216212 323.779279-132.423338 124.704477 2.549019 185.898887 39.976518 239.89501 73.024013 43.046111 26.351831 77.045 47.174804 141.596217 48.036444 42.543488 1.454018 76.937295-18.722725 120.503981-43.207669 63.743429-35.758071 143.122038-80.312053 275.832589-73.472783 138.221459 7.05468 233.773774 49.562266 284.000221 126.373905 15.20436 15.042803 14.701737 39.150779-0.502623 54.229484-15.20436 15.060754-40.353486 14.791491-55.539895-0.251311-3.877381-3.84148-6.498204-7.826566-9.262633-12.045013-35.865776-54.875714-110.828479-85.5896-222.716057-91.315917-109.912986-5.528858-172.830676 29.52913-233.46861 63.56392-46.65423 26.190274-94.906085 53.242188-157.015987 53.242188z" p-id="11665" fill="#1296db"></path><path d="M884.799107 451.673406c-10.680749 0-21.307646-4.344103-29.026506-12.870752-14.288868-15.868542-12.924604-40.245781 3.123446-54.426943 25.723552-22.797565 45.702836-50.49571 59.309571-82.304596 29.367572-69.379992 22.564204-148.489339-18.309855-211.460881-10.249929-15.706984-11.811652-35.417005-4.182546-52.649811 7.826566-17.717478 24.054124-30.247163 43.351276-33.550117 66.418104-11.362881 133.841454-0.682132 194.856356 31.037 125.494314 65.466709 190.637908 216.77433 151.666637 352.015949l-3.195249 9.890913c-6.677712 20.230595-29.367572 32.401264-49.436611 25.777404-20.410104-6.605909-31.952493-27.17757-25.310682-47.426116 0.035902-0.017951 0.789837-2.387462 0.843689-2.423363l2.423363-7.575254c28.918801-100.309287-19.674119-213.202113-113.180038-261.992493-36.655613-19.027889-76.362868-28.021259-116.106026-26.405684 39.850862 78.96574 43.279472 171.951085 8.239435 254.740354-18.202151 42.507586-44.787343 79.414511-79.18115 109.823232-7.413696 6.570007-16.676329 9.801158-25.90306 9.801158z m80.473611-402.816823s0.035902 0.053853 0.035902 0.071803c0-0.017951 0-0.053853-0.035902-0.071803z" p-id="11666" fill="#1296db"></path></svg>