<?xml version="1.0" standalone="no"?><!DOCTYPE svg PUBLIC "-//W3C//DTD SVG 1.1//EN" "http://www.w3.org/Graphics/SVG/1.1/DTD/svg11.dtd"><svg t="1769760953128" class="icon" viewBox="0 0 1024 1024" version="1.1" xmlns="http://www.w3.org/2000/svg" p-id="11152" xmlns:xlink="http://www.w3.org/1999/xlink" width="200" height="200"><path d="M893.76 430.4c-104.96 6.08-212.48-6.72-306.24-36.8-63.68-20.48-123.52-49.28-194.56-56-56.96-5.44-115.84 4.16-167.36 20.8-27.2 8.64-52.48 19.2-77.12 30.72 3.2-7.04 6.72-14.08 10.56-20.8C201.92 291.2 255.36 220.48 318.08 158.08c46.08-46.08 98.24-89.28 159.68-111.36 57.28-20.8 124.48-21.44 176.64 9.92 40.96 24.32 69.12 64.64 95.36 104 30.08 45.76 59.2 91.84 87.36 138.88 21.76 35.84 42.88 72.96 53.12 113.6 1.28 5.76 2.56 11.52 3.52 17.28z" fill="#ffffff" p-id="11153"></path><path d="M864.64 283.008a3840.032 3840.032 0 0 0-88.288-139.936c-29.44-44.544-59.68-86.752-105.472-113.984-56-33.28-134.08-37.76-203.936-12.544-72.704 26.208-129.888 77.28-171.584 118.816a975.616 975.616 0 0 0-164.16 217.504c-22.56 40.576-43.936 88.96-31.68 139.904 15.712 64.832 78.944 100.96 134.624 108.032 44.256 5.6 84.32-4.992 125.696-17.216 0.736 7.936-0.288 18.24-2.432 32.864l-1.216 8.64a370.624 370.624 0 0 1-23.232 87.904c-4.704 11.68-10.432 23.52-16.256 35.552-18.464 38.272-39.424 81.696-34.72 129.92 5.184 53.44 45.44 103.168 102.592 126.72 35.84 14.816 73.664 18.816 109.184 18.816 13.6 0 26.88-0.576 39.552-1.376 40-2.528 82.24-7.808 120-29.376 46.432-26.56 73.696-73.792 69.376-120.256-2.4-26.336-14.912-52.864-37.12-78.72-7.84-9.184-16.32-17.76-24.832-26.304-7.616-7.68-15.264-15.296-22.24-23.488-32.672-38.624-45.888-99.84-36.48-156.16 38.24 19.68 81.28 36.64 127.68 40.48 5.92 0.512 11.872 0.736 17.856 0.736 65.6 0 123.232-28.256 154.176-75.648 25.984-39.744 33.056-93.824 19.456-148.416-11.168-44.768-33.12-83.456-56.544-122.464zM340.544 180.704c36.992-36.864 87.264-82.048 148.128-104 52.064-18.784 109.76-16.224 149.504 7.392 34.176 20.32 59.616 56.192 84.8 94.272 29.856 45.12 59.072 91.456 86.816 137.6 19.68 32.768 37.792 65.12 47.424 99.104-92.448 4.288-186.88-8.448-268.992-36.672-16-5.504-31.68-11.616-47.424-17.696-43.04-16.704-87.552-33.952-137.984-39.104-50.56-5.12-106.944 2.304-163.2 21.6a549.44 549.44 0 0 0-36.544 14.208 910.848 910.848 0 0 1 137.472-176.704z m159.328 305.216c-6.464-0.48-12.896-1.152-19.328-1.152-18.048 0-35.68 1.984-52.576 5.664a193.984 193.984 0 0 1-32-137.216c1.216 0.096 2.4 0.096 3.616 0.224 44.544 4.544 83.904 19.392 125.248 35.424-19.136 26.24-27.936 61.216-24.96 97.056zM242.208 537.28c-32.832-4.16-72-24.576-80.448-59.552-5.504-22.816 2.752-48.48 14.4-72.704l4.512-2.24c0.096 33.92 16.736 68.256 48.352 97.568 15.872 14.688 33.984 26.112 52.672 35.936-13.12 1.792-26.208 2.656-39.488 0.96z m104.896-16.608c-4.928 1.472-9.696 2.816-14.528 4.224-29.696-12.416-58.688-26.624-81.792-48-17.824-16.544-45.28-49.76-36.32-89.6 11.456-4.896 23.2-9.6 35.52-13.856 28.64-9.824 69.312-20.256 113.856-21.248a224.576 224.576 0 0 0 32.448 147.712c-6.688 2.56-13.312 5.184-19.552 8.32a170.08 170.08 0 0 1-29.632 12.448z m268.288 292.416c7.36 7.424 14.784 14.816 21.6 22.784 13.408 15.616 20.8 30.08 21.984 42.944 1.92 20.928-13.44 45.12-37.44 58.816-26.4 15.104-59.936 19.04-92.224 21.088-38.368 2.464-82.752 2.816-120.32-12.704-29.12-12-60-39.456-63.328-73.76-2.944-30.4 12.416-62.24 28.672-95.936 6.464-13.376 12.8-26.56 18.016-39.52 13.248-33.056 22.4-67.744 27.232-103.04l1.152-8.064c2.88-19.392 6.208-43.328-0.384-66.4 36.928-13.184 83.968-12.64 122.144-0.384-19.2 79.744-1.568 169.28 47.168 226.88 8.096 9.536 16.896 18.432 25.728 27.296z m-19.424-301.248c-1.056-0.544-2.24-0.928-3.296-1.44l-0.064-0.032h-0.064a247.872 247.872 0 0 0-59.904-20c-4.544-34.08 4.16-67.936 23.936-89.664 7.072 2.624 14.08 5.44 21.248 7.904 33.344 11.456 68.768 20.064 105.056 26.56-10.016 35.616-36.064 66.944-71.04 85.728a963.84 963.84 0 0 1-15.872-9.056z m98.88 45.44a327.296 327.296 0 0 1-49.824-19.168c34.56-24 59.52-59.104 69.472-98.016 30.176 4.16 60.736 6.56 91.456 7.2A184.672 184.672 0 0 1 759.136 512c-19.328 16.96-41.12 34.976-64.256 45.344z m153.312-38.4c-19.264 29.472-60.192 47.36-103.968 46.368 12.8-9.216 24.832-19.36 36.032-29.216a213.728 213.728 0 0 0 59.968-88.864c7.68-0.16 15.36-0.64 23.04-1.024 2.528 27.84-2.528 53.504-15.04 72.704z" fill="#ffffff" p-id="11154"></path></svg>