<?xml version="1.0" standalone="no"?><!DOCTYPE svg PUBLIC "-//W3C//DTD SVG 1.1//EN" "http://www.w3.org/Graphics/SVG/1.1/DTD/svg11.dtd"><svg t="1770090032704" class="icon" viewBox="0 0 1024 1024" version="1.1" xmlns="http://www.w3.org/2000/svg" p-id="8263" xmlns:xlink="http://www.w3.org/1999/xlink" width="200" height="200"><path d="M877.71136 756.30592c0 20.23424-16.34304 35.98336-36.57728 35.98336L185.05728 792.86272l-0.4096 0c-11.53024 0-22.4256-4.89472-29.32736-14.15168-6.98368-9.35936-9.07264-21.21728-5.59104-32.39936 2.64192-8.56064 66.60096-209.77664 205.78304-209.77664 43.52 1.024 77.04576 11.22304 109.4656 20.95104 40.81664 12.24704 80.60928 22.79424 125.3376 15.72864 23.36768-3.76832 33.03424-27.21792 49.52064-79.93344 21.74976-69.48864 54.64064-174.55104 199.59808-174.55104 20.04992 0 36.31104 16.09728 36.57728 36.12672l1.72032 144.9984L877.71136 756.30592 877.71136 756.30592zM256 244.30592c40.40704 0 73.13408 32.72704 73.13408 73.13408 0 40.40704-32.72704 73.13408-73.13408 73.13408-40.36608 0-73.13408-32.72704-73.13408-73.13408C182.86592 277.03296 215.63392 244.30592 256 244.30592zM889.93792 61.44 134.06208 61.44C60.17024 61.44 0 121.58976 0 195.50208l0 609.56672c0 73.91232 60.17024 134.06208 134.06208 134.06208l755.85536 0c73.91232 0 134.06208-60.14976 134.06208-134.06208L1023.97952 195.50208C1024 121.58976 963.85024 61.44 889.93792 61.44z" fill="#4f7f30" p-id="8264"></path></svg>