<?xml version="1.0" standalone="no"?><!DOCTYPE svg PUBLIC "-//W3C//DTD SVG 1.1//EN" "http://www.w3.org/Graphics/SVG/1.1/DTD/svg11.dtd"><svg t="1769761031801" class="icon" viewBox="0 0 1024 1024" version="1.1" xmlns="http://www.w3.org/2000/svg" p-id="15210" xmlns:xlink="http://www.w3.org/1999/xlink" width="200" height="200"><path d="M514.432 74.688c93.44 0 166.912 0 224.192 7.68 58.752 7.872 105.344 24.384 141.952 61.056 36.608 36.608 53.12 83.2 61.056 141.952 7.68 57.28 7.68 130.688 7.68 224.192v4.864c0 93.44 0 166.912-7.68 224.192-7.872 58.752-24.384 105.344-61.056 141.952-36.608 36.608-83.2 53.12-141.952 61.056-57.28 7.68-130.688 7.68-224.192 7.68h-4.864c-93.44 0-166.912 0-224.192-7.68-58.752-7.872-105.344-24.384-141.952-61.056-36.672-36.608-53.12-83.2-61.056-141.952-7.68-57.28-7.68-130.688-7.68-224.192v-4.864c0-93.44 0-166.912 7.68-224.192 7.872-58.752 24.384-105.344 61.056-141.952 36.608-36.672 83.2-53.12 141.952-61.056 57.28-7.68 130.688-7.68 224.192-7.68h4.864zM512 362.688a42.688 42.688 0 0 1 35.904 65.664 314.24 314.24 0 0 1-19.328 25.92l-3.84 4.736a672 672 0 0 0-20.928 26.816c-16 22.016-34.496 52.544-34.496 90.176a42.688 42.688 0 1 0 85.376 0c0-9.536 4.672-21.44 18.176-40a576 576 0 0 1 17.856-22.848l4.352-5.376c7.936-9.92 16.896-21.248 24.64-33.28A128 128 0 1 0 384 405.376a42.688 42.688 0 1 0 85.312 0c0-23.552 19.136-42.624 42.688-42.624z m-0.192 298.624a42.56 42.56 0 0 0-42.496 42.688c0 23.552 19.008 42.688 42.496 42.688h0.384A42.56 42.56 0 0 0 554.688 704a42.56 42.56 0 0 0-42.496-42.688h-0.384z" fill="#4f7f30" p-id="15211"></path></svg>