<?xml version="1.0" standalone="no"?><!DOCTYPE svg PUBLIC "-//W3C//DTD SVG 1.1//EN" "http://www.w3.org/Graphics/SVG/1.1/DTD/svg11.dtd"><svg t="1769177252859" class="icon" viewBox="0 0 1137 1024" version="1.1" xmlns="http://www.w3.org/2000/svg" p-id="12692" xmlns:xlink="http://www.w3.org/1999/xlink" width="222.0703125" height="200"><path d="M346.908444 622.364444c77.869511-101.899378 88.541867-204.572444 221.980445-204.572444 159.721244 0 168.868978 125.178311 226.872889 204.572444 58.026667 79.416889 268.743111 140.470044 167.981511 308.4288C862.958933 1098.729244 691.950933 906.353778 568.888889 906.353778c-123.062044 0-310.8864 204.5952-399.109689 24.439466-88.200533-180.178489 83.308089-185.685333 177.129244-308.4288z m36.181334 24.348445c90.385067-114.346667 73.432178-184.411022 185.799111-184.411022 134.485333 0 116.667733 81.146311 190.464 184.411022 73.750756 103.287467 247.125333 130.958222 165.956267 261.893689-81.146311 130.935467-204.708978-46.102756-356.420267-46.102756S277.981867 1050.624 207.894756 908.606578c-70.087111-141.994667 84.832711-147.547022 175.217777-261.893689z m319.761066-284.398933c62.213689 8.738133 124.017778-64.853333 137.989689-164.431645 13.994667-99.555556-25.099378-187.369244-87.335822-196.107378-62.213689-8.738133-124.017778 64.853333-137.989689 164.431645-13.994667 99.555556 25.099378 187.369244 87.335822 196.107378z m6.326045-45.056c37.319111 5.233778 76.117333-51.040711 86.607644-125.701689 10.490311-74.683733-11.264-139.4688-48.605866-144.725334-37.319111-5.233778-76.117333 51.040711-86.607645 125.701689-10.490311 74.683733 11.264 139.4688 48.605867 144.725334zM186.709333 607.345778c60.416-17.316978 86.926222-109.704533 59.1872-206.347378-27.716267-96.642844-99.145956-160.950044-159.5392-143.633067-60.416 17.316978-86.926222 109.704533-59.1872 206.347378 27.716267 96.642844 99.145956 160.950044 159.5392 143.633067z m-12.538311-43.736178c36.226844-10.399289 48.765156-77.596444 27.989334-150.072889-20.798578-72.476444-67.015111-122.811733-103.264712-112.412444-36.226844 10.376533-48.765156 77.573689-27.989333 150.050133 20.798578 72.476444 67.015111 122.811733 103.264711 112.412444z m263.7824-202.160356c62.077156-9.8304 99.646578-98.304 83.899734-197.586488-15.701333-99.305244-78.779733-171.849956-140.856889-162.019556-62.0544 9.8304-99.623822 98.304-83.876978 197.609244 15.701333 99.305244 78.779733 171.8272 140.856889 162.019556z m-7.099733-44.942222c37.228089-5.916444 57.844622-71.042844 46.057244-145.521778-11.787378-74.478933-51.541333-130.070756-88.792177-124.177066-37.228089 5.893689-57.844622 71.042844-46.057245 145.521778 11.787378 74.478933 51.541333 130.070756 88.792178 124.177066z m523.264 291.680711c60.711822 16.270222 131.003733-49.265778 157.013333-146.386489 26.032356-97.120711-2.070756-189.0304-62.759822-205.277866-60.711822-16.270222-131.003733 49.265778-157.013333 146.386489-26.032356 97.120711 2.070756 189.0304 62.759822 205.277866z m11.787378-43.940977c36.408889 9.739378 81.760711-41.392356 101.262222-114.232889 19.524267-72.817778 5.825422-139.787378-30.583467-149.549511-36.408889-9.739378-81.760711 41.392356-101.262222 114.232888-19.524267 72.817778-5.825422 139.787378 30.583467 149.549512z" fill="#ffffff" p-id="12693"></path></svg>