<svg t="1769239453465" class="icon" viewBox="0 0 1024 1024" version="1.1" xmlns="http://www.w3.org/2000/svg" p-id="8829" width="200" height="200"><path d="M709.12 92.041846l261.513846 257.575385a45.646769 45.646769 0 0 1 0 64.393846l-359.975384 354.146461-97.673847 32.177231-65.378461 64.393846a46.749538 46.749538 0 0 1-65.378462 0l-196.52923-193.181538a45.607385 45.607385 0 0 1 0-64.354462l65.378461-64.393846 32.689231-96.571077 359.975384-354.185846a46.749538 46.749538 0 0 1 65.378462 0z m32.689231 161.004308l-294.203077 289.752615 65.378461 64.354462 294.203077-289.713231-65.378461-64.393846z m-572.258462 499.003077l130.756923 128.787692L234.929231 945.230769l-196.135385-64.393846 130.756923-128.787692z" fill="#F357CC" p-id="8830"></path></svg>
