<?xml version="1.0" standalone="no"?><!DOCTYPE svg PUBLIC "-//W3C//DTD SVG 1.1//EN" "http://www.w3.org/Graphics/SVG/1.1/DTD/svg11.dtd"><svg t="1769395613783" class="icon" viewBox="0 0 1024 1024" version="1.1" xmlns="http://www.w3.org/2000/svg" p-id="11510" xmlns:xlink="http://www.w3.org/1999/xlink" width="200" height="200"><path d="M915.359 749.707c-31.193-2.986-43.797-13.271-62.379-34.506-18.583-21.239-30.863-39.321-34.846-63.215-3.981-23.89 6.892-50.576 22.896-51.762 26.876-1.992 18.913 25.881 4.976 26.876 0.997 5.974 25.884 9.955 38.823-5.973 12.941-15.928-1.99-45.791-31.854-52.76 0 0-24.887-6.967-45.791-6.967-20.905 0-48.777-2.987-65.7-27.873s-15.928-48.777-4.978-61.718c10.95-12.941 22.896-13.937 27.873-3.982 4.977 9.955-7.965 13.937-7.965 13.937s27.873 9.955 33.846-13.937c5.974-23.891-24.956-37.175-46.785-39.818-42.474-5.143-97.555 7.964-146.332 61.718-48.777 53.755-123.437 130.404-123.437 130.404s-35.835-25.384-40.813-55.248c-4.978-29.863 6.968-43.302 17.918-39.32 10.95 3.982 0.996 18.914 0.996 18.914s27.872 7.965 28.868-12.941c0.996-20.904-20.904-30.858-41.81-32.85-20.904-1.991-78.64 0-121.445 41.809s-76.65 108.505-120.45 141.356c-43.8 32.851-50.768 30.859-61.718 35.836-10.95 4.978-55.745 26.878-55.745 26.878s56.74-7.956 93.572-3.981c101.536 10.949 159.272 68.686 159.272 68.686s-41.809-52.759-87.6-69.682c-45.791-16.923-67.691-18.913-67.691-18.913s54.75-43.801 69.682-63.712c14.932-19.908 72.668-88.596 72.668-88.596s-0.996 29.864 2.986 49.774c3.982 19.908 11.945 57.737 27.873 58.732 15.927 0.996-2.986-21.901-11.945-37.828 0 0-12.941-27.873-10.95-54.75 1.991-26.878 3.981-25.883 3.981-25.883l6.969-4.977c0 0-10.95 47.782 5.973 79.637 16.922 31.855 42.804 58.733 42.804 58.733s-48.777-10.951-73.664 0.995c-24.886 11.945-28.522 25.858-25.882 36.831 3.317 13.77 28.868 20.905 28.868 20.905s-10.95-15.928-2.986-29.863c7.964-13.936 54.75-13.936 91.581 0 36.833 13.936 106.514 56.74 141.354 61.718 34.842 4.977 56.741 3.982 71.673 0 14.932-3.981 28.868-26.877 28.868-26.877s-18.913 11.945-46.786 10.95c-27.873-0.996-51.764-7.965-51.764-7.965s39.153 0.499 83.618-42.804c21.562-20.998 32.804-53.79 41.809-65.702 15.928-21.069 26.877-24.885 26.877-24.885s-3.981 31.853-4.977 47.782c-0.996 15.928-5.973 82.623 12.94 80.632 18.914-1.991-8.491-30.898-4.977-80.632 3.317-46.954 23.891-65.702 23.891-65.702s-9.954 53.755-2.986 89.594c6.968 35.836 33.846 62.713 33.846 62.713s-21.9 8.959-47.781 24.887c-25.883 15.927-52.76 30.858-76.65 37.827-23.891 6.967-79.633 12.443-79.633 12.443s47.777 19.908 88.926 5.311c41.147-14.604 90.917-54.089 123.437-66.368 55.659-21.01 74.328-14.597 74.328-14.597s-22.567 7.963-37.166 22.56c-14.597 14.605-33.181 35.838-33.181 35.838s66.365-42.471 82.293-45.126c15.926-2.657 57.074-14.603 71.672 6.637s0 35.837 0 35.837 29.199-5.312 33.181-29.203C961.814 761.652 927.324 750.851 915.359 749.707zM564.295 734.611c-31.854 26.878-61.718 5.974-90.587-6.968-28.868-12.94-69.681-46.787-79.637-59.727-34.506-44.857-24.885-92.58-18.913-106.516s26.877-29.864 27.873-10.95c0.995 18.914 15.927 31.854 31.854 52.76 15.928 20.902 80.632 65.7 80.632 65.7-20.905 0-55.745-26.877-73.664-41.811-17.918-14.933-34.841-43.799-40.814-42.804-5.973 0.994-15.927 12.94-9.954 36.831 5.973 23.892 39.013 68.875 76.649 93.575 31.855 20.904 51.764 11.945 51.764 11.945s-12.941-7.963-22.896-11.945c-9.954-3.982-23.891-15.928-16.923-23.892 8.003-9.146 26.722-9.018 57.736 1.991 30.859 10.95 62.714 2.986 62.714 2.986S596.148 707.734 564.295 734.611zM599.136 670.902c-45.865 1.479-108.505-39.819-108.505-39.819s35.016-34.679 54.75-55.746c36.832-39.32 59.396-47.284 59.396-47.284s-10.619 35.837-2.656 73.167c7.525 35.263 14.933 56.74 25.883 51.765 10.949-4.979-19.579-47.948-20.575-83.785-0.994-35.837 18.584-58.566 18.584-58.566s-14.601 37.329-4.978 76.649c5.447 22.259 22.896 54.752 22.896 54.752S629.994 669.907 599.136 670.902zM705.649 535.768c-7.467-11.447-5.973-31.356-7.965-31.854-1.99-0.498-6.968 0-9.953 2.489-2.987 2.488-9.955 7.466-14.933 36.335-4.978 28.866 1.99 53.754 6.471 54.749 4.479 0.995 5.973-10.452 7.465-14.932 1.494-4.479 3.485-17.421 12.443-20.905 8.961-3.483 26.909 17.011 21.403 20.407-14.932 9.208-53.257 41.81-53.257 41.81s-40.316-74.41 4.479-129.16c25.528-31.202 52.759-40.067 52.759-40.067s-16.424 42.307-9.457 66.198c6.969 23.89 30.36 44.297 34.842 48.776-7.467 1.742-8.462 2.738-17.421 5.973C728.75 576.949 713.115 547.216 705.649 535.768zM807.188 710.224c-15.597-15.602-25.881-34.511-26.546-58.401-0.545-19.523 7.299-35.836-1.327-36.5-8.624-0.662-24.555 22.564-27.872 59.064-3.316 36.498 15.263 55.081 25.883 55.745 10.618 0.661-14.602-34.51-2.656-36.5 2.698-0.447 13.937 11.945 24.556 23.226 10.62 11.284 36.498 25.881 36.498 25.881s-18.579 0.665-34.508 3.982c-11.121 2.318-32.519 7.303-32.519 7.303s-45.127-30.529-24.557-110.83c12.743-49.737 64.374-53.089 64.374-53.089s-18.583 37.164-12.61 74.328c5.974 37.158 57.076 76.314 57.076 76.314S838.378 741.413 807.188 710.224z" fill="#0092FF" p-id="11511"></path><path d="M897.441 808.438c0 0 9.954-11.276 4.646-21.234-5.309-9.955-26.547-7.965-45.791 0.665-19.244 8.623-59.063 27.211-55.081 29.863 3.983 2.651 60.695-22.359 71.674-21.9C888.816 796.492 885.495 809.77 897.441 808.438z" fill="#0092FF" p-id="11512"></path><path d="M352.597 733.449c9.294-10.619 45.13 0 67.031 12.61 34.817 20.041 44.46 35.836 42.47 37.163-1.991 1.325-39.154-19.245-57.737-27.207-16.153-6.923-29.198-10.621-39.153-7.965-2.87 0.762-5.312 7.965-8.628 6.633C353.263 753.354 343.942 743.338 352.597 733.449z" fill="#0092FF" p-id="11513"></path><path d="M259.686 800.148c5.308-1.33-22.561-34.514-67.691-41.147-45.129-6.638-47.777 6.634-49.107 10.614-1.33 3.982 8.523 15.011 23.891 10.62C203.94 769.615 254.378 801.471 259.686 800.148z" fill="#0092FF" p-id="11514"></path></svg>