<?xml version="1.0" standalone="no"?><!DOCTYPE svg PUBLIC "-//W3C//DTD SVG 1.1//EN" "http://www.w3.org/Graphics/SVG/1.1/DTD/svg11.dtd"><svg t="1768962842863" class="icon" viewBox="0 0 1024 1024" version="1.1" xmlns="http://www.w3.org/2000/svg" p-id="6926" xmlns:xlink="http://www.w3.org/1999/xlink" width="200" height="200"><path d="M497.328 157.344c-124.304-35.36-258.064-1.76-351.424 91.616a361.28 361.28 0 0 0-55.168 71.776c-3.696 6.288-2.688 14.288 2.464 19.44l115.536 115.52c55.68-86.576 149.104-204.032 288.592-298.352zM567.728 814.704l116.096 116.08a15.92 15.92 0 0 0 19.44 2.464 359.552 359.552 0 0 0 71.776-55.168c94.112-94.112 127.472-228.736 91.024-353.616-94.48 139.968-211.936 234.096-298.336 290.24z" fill="#ffffff" p-id="6927"></path><path d="M144 768c-61.744 0-112 50.24-112 112v96a16 16 0 0 0 16 16h96c61.744 0 112-50.24 112-112s-50.256-112-112-112zM921.856 355.232c37.344-88.432 63.504-190 70.112-306.336a15.936 15.936 0 0 0-16.8-16.88c-116.864 6.096-218.752 31.952-307.376 69.152l254.064 254.064z" fill="#ffffff" p-id="6928"></path><path d="M636.352 114.976c-331.584 154.752-462 468.832-463.648 472.912-2.384 5.952-0.992 12.752 3.536 17.28l242.592 242.608a16 16 0 0 0 17.376 3.504c4.048-1.664 316.576-133.584 471.808-464.624L636.352 114.976z m6.064 387.904a85.76 85.76 0 1 1-121.296-121.296 85.76 85.76 0 0 1 121.296 121.296z" fill="#ffffff" p-id="6929"></path></svg>