<?xml version="1.0" standalone="no"?><!DOCTYPE svg PUBLIC "-//W3C//DTD SVG 1.1//EN" "http://www.w3.org/Graphics/SVG/1.1/DTD/svg11.dtd"><svg t="1770017333651" class="icon" viewBox="0 0 1024 1024" version="1.1" xmlns="http://www.w3.org/2000/svg" p-id="8112" xmlns:xlink="http://www.w3.org/1999/xlink" width="200" height="200"><path d="M533 618.5c-140.8 0-255.4-114.6-255.4-255.4S392.2 107.7 533 107.7s255.4 114.6 255.4 255.4S673.8 618.5 533 618.5z m0-447.7c-106 0-192.3 86.2-192.3 192.3S427 555.4 533 555.4s192.3-86.2 192.3-192.3S639 170.8 533 170.8z" p-id="8113" fill="#ffffff"></path><path d="M752.9 916.3H313.1c-58.6 0-106.5-47.9-106.5-106.5s47.9-106.5 106.5-106.5h439.7c58.6 0 106.5 47.9 106.5 106.5 0.1 58.6-47.9 106.5-106.4 106.5z" fill="#ffffff" p-id="8114"></path></svg>