<?xml version="1.0" standalone="no"?><!DOCTYPE svg PUBLIC "-//W3C//DTD SVG 1.1//EN" "http://www.w3.org/Graphics/SVG/1.1/DTD/svg11.dtd"><svg t="1769742026849" class="icon" viewBox="0 0 1024 1024" version="1.1" xmlns="http://www.w3.org/2000/svg" p-id="5014" xmlns:xlink="http://www.w3.org/1999/xlink" width="200" height="200"><path d="M512.874667 141.226667c68.928 0 123.946667 56.917333 127.786666 127.253333l0.213334 7.850667-0.021334 195.562666h31.36l0.277334-2.624c5.418667-38.890667 34.261333-70.613333 73.173333-80l7.402667-1.493333 6.826666-0.896 6.165334-0.277333 8.213333 0.192c44.245333 3.072 80.597333 36.224 88.042667 80.938666l0.938666 7.146667 0.32 7.68v138.666667a42.666667 42.666667 0 0 1-37.696 42.389333l-4.970666 0.277333h-180.053334l0.042667 24.533334c98.986667-27.413333 191.936 15.402667 271.509333 125.077333l8.362667 11.84a21.333333 21.333333 0 0 1-2.709333 27.2l-3.498667 2.773333-35.989333 22.890667a21.333333 21.333333 0 0 1-29.098667-5.973333l-1.493333-2.218667c-68.906667-99.306667-137.685333-126.336-217.792-86.314667 5.802667 6.485333 11.52 13.226667 17.173333 20.202667l11.370667 14.570667 4.48 6.144a21.333333 21.333333 0 0 1-1.792 27.264l-3.370667 2.858666-35.264 24.256a21.333333 21.333333 0 0 1-29.226667-4.864l-13.141333-17.28-6.784-8.32c-92.373333-108.992-193.322667-123.989333-297.664-71.808-21.717333 10.837333-41.770667 25.898667-60.032 44.16a300.736 300.736 0 0 0-37.333333 45.653334l-1.386667 2.261333a21.333333 21.333333 0 0 1-27.776 8.042667l-37.802667-18.901334a21.333333 21.333333 0 0 1-9.536-28.629333l1.173334-2.048c17.578667-27.178667 35.008-49.408 52.330666-66.730667 24.405333-24.405333 51.754667-44.906667 82.197334-60.138666 48.917333-24.469333 98.346667-37.482667 147.093333-37.973334l-0.042667-126.528H182.208a42.666667 42.666667 0 0 1-42.368-37.696l-0.298667-4.970666v-202.666667a96 96 0 0 1 191.786667-6.570667l0.213333 6.570667v53.290667h53.312l0.021334-67.52c0-73.877333 56.533333-135.104 128-135.104z m0 85.333333c-21.248 0-40 18.773333-42.410667 44.224l-0.256 5.546667v398.549333c29.077333 9.002667 57.6 22.933333 85.333333 42.069333V276.330667c0-28.202667-19.904-49.770667-42.666666-49.770667z m254.826666 224l-3.242666 0.149333a32 32 0 0 0-28.586667 27.413334l-0.298667 4.437333v53.333333h-85.333333v64h149.333333l0.042667-115.818666-0.192-4.629334a32 32 0 0 0-27.306667-28.586666l-4.416-0.298667z m-532.16-192a32 32 0 0 0-31.701333 27.648l-0.298667 4.352-0.042666 181.290667 181.354666 0.042666v-64.042666h-117.312V290.56a32 32 0 0 0-32-32z" fill="#f4ea2a" p-id="5015"></path></svg>