<?xml version="1.0" standalone="no"?><!DOCTYPE svg PUBLIC "-//W3C//DTD SVG 1.1//EN" "http://www.w3.org/Graphics/SVG/1.1/DTD/svg11.dtd"><svg t="1770019747721" class="icon" viewBox="0 0 1024 1024" version="1.1" xmlns="http://www.w3.org/2000/svg" p-id="13900" xmlns:xlink="http://www.w3.org/1999/xlink" width="200" height="200"><path d="M512 108.25244141C289.01599121 108.25244141 108.25244141 289.01599121 108.25244141 512s180.76354981 403.74755859 403.74755859 403.74755859 403.74755859-180.76354981 403.74755859-403.74755859S734.98400879 108.25244141 512 108.25244141z m163.24584961 446.05865478l-143.28918458 143.29742432c-0.6427002 0.82397461-1.32659912 1.62322998-2.08465575 2.37304688-4.93560791 4.93560791-11.40380859 7.37457276-17.87200928 7.34161376-6.45996094 0.04119873-12.93640137-2.40600586-17.87200927-7.34161376-0.75805664-0.75805664-1.45019531-1.54907227-2.08465576-2.37304688l-143.28918458-143.28918457c-9.78881836-9.78881836-9.78881836-25.65856934 0-35.44738769 9.78881836-9.78881836 25.65856934-9.78881836 35.45562744 0L486.93469238 621.58862305V341.74212646c0-13.84277344 11.22253418-25.06530762 25.06530762-25.06530761 13.84277344 0 25.06530762 11.22253418 25.06530762 25.06530761V621.58862305L639.79846192 518.86370849c9.78881836-9.78881836 25.65856934-9.78881836 35.45562743 0 9.78881836 9.78881836 9.78881836 25.65856934-0.00823974 35.4473877z" p-id="13901" fill="#f89303"></path></svg>