<?xml version="1.0" standalone="no"?><!DOCTYPE svg PUBLIC "-//W3C//DTD SVG 1.1//EN" "http://www.w3.org/Graphics/SVG/1.1/DTD/svg11.dtd"><svg t="1770019841918" class="icon" viewBox="0 0 1024 1024" version="1.1" xmlns="http://www.w3.org/2000/svg" p-id="15324" xmlns:xlink="http://www.w3.org/1999/xlink" width="200" height="200"><path d="M170.666667 128h554.666666l158.165334 158.165333a42.666667 42.666667 0 0 1 12.501333 30.165334V853.333333a42.666667 42.666667 0 0 1-42.666667 42.666667H170.666667a42.666667 42.666667 0 0 1-42.666667-42.666667V170.666667a42.666667 42.666667 0 0 1 42.666667-42.666667z m341.333333 640a128 128 0 1 0 0-256 128 128 0 0 0 0 256zM213.333333 213.333333v170.666667h426.666667V213.333333H213.333333z" fill="#f89303" p-id="15325"></path></svg>