<?xml version="1.0" standalone="no"?><!DOCTYPE svg PUBLIC "-//W3C//DTD SVG 1.1//EN" "http://www.w3.org/Graphics/SVG/1.1/DTD/svg11.dtd"><svg t="1769776517077" class="icon" viewBox="0 0 1093 1024" version="1.1" xmlns="http://www.w3.org/2000/svg" p-id="11458" xmlns:xlink="http://www.w3.org/1999/xlink" width="213.4765625" height="200"><path d="M409.6 0h68.266165v68.266165H409.6zM273.058635 68.264659h68.266165v68.266165h-68.266165zM136.541365 204.8h68.266164v68.266165H136.541365z" fill="#231815" p-id="11459"></path><path d="M204.8 204.8h68.266165v68.266165H204.8z" fill="#61AD18" p-id="11460"></path><path d="M0 409.6h68.266165v68.266165H0z" fill="#231815" p-id="11461"></path><path d="M68.270682 409.6h68.266165v68.266165H68.270682zM136.541365 409.6h68.266164v68.266165H136.541365z" fill="#FFFFFF" p-id="11462"></path><path d="M204.8 409.6h68.266165v68.266165H204.8z" fill="#FFFFFF" p-id="11463"></path><path d="M0 546.132329h68.266165v68.266165H0z" fill="#231815" p-id="11464"></path><path d="M68.270682 546.132329h68.266165v68.266165H68.270682z" fill="#FFFFFF" p-id="11465"></path><path d="M136.541365 546.132329h68.266164v68.266165H136.541365z" fill="#61AD18" p-id="11466"></path><path d="M204.8 546.132329h68.266165v68.266165H204.8z" fill="#61AD18" p-id="11467"></path><path d="M1024 546.132329h68.266165v68.266165H1024z" fill="#231815" p-id="11468"></path><path d="M955.729318 546.132329h68.266164v68.266165h-68.266164z" fill="#61AD18" p-id="11469"></path><path d="M887.458635 546.132329h68.266165v68.266165h-68.266165z" fill="#FFFFFF" p-id="11470"></path><path d="M819.2 546.132329h68.266165v68.266165H819.2z" fill="#FFFFFF" p-id="11471"></path><path d="M955.729318 409.6h68.266164v68.266165h-68.266164z" fill="#231815" p-id="11472"></path><path d="M887.458635 409.6h68.266165v68.266165h-68.266165z" fill="#FFFFFF" p-id="11473"></path><path d="M819.2 409.6h68.266165v68.266165H819.2z" fill="#FFFFFF" p-id="11474"></path><path d="M887.458635 273.067671h68.266165v68.266164h-68.266165z" fill="#231815" p-id="11475"></path><path d="M819.2 273.067671h68.266165v68.266164H819.2zM273.058635 136.532329h68.266165v68.266165h-68.266165zM273.058635 204.8h68.266165v68.266165h-68.266165zM273.058635 273.067671h68.266165v68.266164h-68.266165z" fill="#61AD18" p-id="11476"></path><path d="M273.058635 341.332329h68.266165v68.266165h-68.266165zM273.058635 409.6h68.266165v68.266165h-68.266165z" fill="#61AD18" p-id="11477"></path><path d="M273.058635 477.864659h68.266165v68.266165h-68.266165zM273.058635 546.132329h68.266165v68.266165h-68.266165z" fill="#61AD18" p-id="11478"></path><path d="M273.058635 614.4h68.266165v68.266165h-68.266165zM273.058635 682.667671h68.266165v68.266164h-68.266165z" fill="#231815" p-id="11479"></path><path d="M273.058635 750.932329h68.266165v68.266165h-68.266165z" fill="#FFFFFF" p-id="11480"></path><path d="M273.058635 819.2h68.266165v68.266165h-68.266165z" fill="#FFDFD2" p-id="11481"></path><path d="M273.058635 887.464659h68.266165v68.266165h-68.266165zM136.541365 273.067671h68.266164v68.266164H136.541365z" fill="#231815" p-id="11482"></path><path d="M204.8 273.067671h68.266165v68.266164H204.8z" fill="#61AD18" p-id="11483"></path><path d="M0 477.864659h68.266165v68.266165H0z" fill="#231815" p-id="11484"></path><path d="M68.270682 477.864659h68.266165v68.266165H68.270682zM136.541365 477.864659h68.266164v68.266165H136.541365z" fill="#FFFFFF" p-id="11485"></path><path d="M204.8 477.864659h68.266165v68.266165H204.8z" fill="#61AD18" p-id="11486"></path><path d="M1024 477.864659h68.266165v68.266165H1024z" fill="#231815" p-id="11487"></path><path d="M955.729318 477.864659h68.266164v68.266165h-68.266164z" fill="#61AD18" p-id="11488"></path><path d="M887.458635 477.864659h68.266165v68.266165h-68.266165z" fill="#FFFFFF" p-id="11489"></path><path d="M819.2 477.864659h68.266165v68.266165H819.2z" fill="#FFFFFF" p-id="11490"></path><path d="M955.729318 341.332329h68.266164v68.266165h-68.266164z" fill="#231815" p-id="11491"></path><path d="M887.458635 341.332329h68.266165v68.266165h-68.266165z" fill="#61AD18" p-id="11492"></path><path d="M819.2 341.332329h68.266165v68.266165H819.2z" fill="#FFFFFF" p-id="11493"></path><path d="M887.458635 204.8h68.266165v68.266165h-68.266165z" fill="#231815" p-id="11494"></path><path d="M819.2 204.8h68.266165v68.266165H819.2z" fill="#61AD18" p-id="11495"></path><path d="M0 614.4h68.266165v68.266165H0z" fill="#231815" p-id="11496"></path><path d="M68.270682 614.4h68.266165v68.266165H68.270682zM136.541365 614.4h68.266164v68.266165H136.541365z" fill="#61AD18" p-id="11497"></path><path d="M204.8 614.4h68.266165v68.266165H204.8z" fill="#61AD18" p-id="11498"></path><path d="M1024 614.4h68.266165v68.266165H1024z" fill="#231815" p-id="11499"></path><path d="M955.729318 614.4h68.266164v68.266165h-68.266164zM887.458635 614.4h68.266165v68.266165h-68.266165z" fill="#61AD18" p-id="11500"></path><path d="M819.2 614.4h68.266165v68.266165H819.2z" fill="#FFFFFF" p-id="11501"></path><path d="M204.8 819.2h68.266165v68.266165H204.8zM819.2 819.2h68.266165v68.266165H819.2zM0 682.667671h68.266165v68.266164H0z" fill="#231815" p-id="11502"></path><path d="M68.270682 682.667671h68.266165v68.266164H68.270682z" fill="#61AD18" p-id="11503"></path><path d="M136.541365 682.667671h68.266164v68.266164H136.541365z" fill="#231815" p-id="11504"></path><path d="M204.8 682.667671h68.266165v68.266164H204.8zM1024 682.667671h68.266165v68.266164H1024z" fill="#231815" p-id="11505"></path><path d="M955.729318 682.667671h68.266164v68.266164h-68.266164z" fill="#61AD18" p-id="11506"></path><path d="M887.458635 682.667671h68.266165v68.266164h-68.266165z" fill="#231815" p-id="11507"></path><path d="M819.2 682.667671h68.266165v68.266164H819.2zM204.8 887.464659h68.266165v68.266165H204.8zM819.2 887.464659h68.266165v68.266165H819.2zM273.058635 955.735341h68.266165v68.266165h-68.266165zM477.870682 955.735341h68.266165v68.266165h-68.266165zM68.270682 750.932329h68.266165v68.266165H68.270682z" fill="#231815" p-id="11508"></path><path d="M887.458635 750.932329h68.266165v68.266165h-68.266165z" fill="#231815" p-id="11509"></path><path d="M819.2 750.932329h68.266165v68.266165H819.2zM341.329318 955.735341h68.266164v68.266165h-68.266164zM546.129318 955.735341h68.266164v68.266165h-68.266164zM682.670682 955.735341h68.266165v68.266165h-68.266165zM136.541365 750.932329h68.266164v68.266165H136.541365z" fill="#231815" p-id="11510"></path><path d="M204.8 750.932329h68.266165v68.266165H204.8z" fill="#FFFFFF" p-id="11511"></path><path d="M955.729318 750.932329h68.266164v68.266165h-68.266164zM409.6 955.735341h68.266165v68.266165H409.6zM614.4 955.735341h68.266165v68.266165H614.4zM750.941365 955.735341h68.266164v68.266165h-68.266164zM68.270682 341.332329h68.266165v68.266165H68.270682z" fill="#231815" p-id="11512"></path><path d="M136.541365 341.332329h68.266164v68.266165H136.541365z" fill="#FFFFFF" p-id="11513"></path><path d="M204.8 341.332329h68.266165v68.266165H204.8z" fill="#FFFFFF" p-id="11514"></path><path d="M204.8 136.532329h68.266165v68.266165H204.8z" fill="#231815" p-id="11515"></path><path d="M546.129318 68.264659h68.266164v68.266165h-68.266164zM546.129318 136.532329h68.266164v68.266165h-68.266164z" fill="#61AD18" p-id="11516"></path><path d="M546.129318 204.8h68.266164v68.266165h-68.266164zM546.129318 273.067671h68.266164v68.266164h-68.266164z" fill="#FFFFFF" p-id="11517"></path><path d="M546.129318 341.332329h68.266164v68.266165h-68.266164zM546.129318 409.6h68.266164v68.266165h-68.266164z" fill="#61AD18" p-id="11518"></path><path d="M546.129318 477.864659h68.266164v68.266165h-68.266164zM546.129318 546.132329h68.266164v68.266165h-68.266164z" fill="#61AD18" p-id="11519"></path><path d="M546.129318 614.4h68.266164v68.266165h-68.266164z" fill="#231815" p-id="11520"></path><path d="M546.129318 682.667671h68.266164v68.266164h-68.266164z" fill="#FFDFD2" p-id="11521"></path><path d="M546.129318 750.932329h68.266164v68.266165h-68.266164zM546.129318 819.2h68.266164v68.266165h-68.266164z" fill="#FFFFFF" p-id="11522"></path><path d="M546.129318 887.464659h68.266164v68.266165h-68.266164z" fill="#FFDFD2" p-id="11523"></path><path d="M477.870682 0h68.266165v68.266165h-68.266165zM341.329318 68.264659h68.266164v68.266165h-68.266164z" fill="#231815" p-id="11524"></path><path d="M341.329318 136.532329h68.266164v68.266165h-68.266164z" fill="#61AD18" p-id="11525"></path><path d="M341.329318 204.8h68.266164v68.266165h-68.266164zM341.329318 273.067671h68.266164v68.266164h-68.266164z" fill="#FFFFFF" p-id="11526"></path><path d="M341.329318 341.332329h68.266164v68.266165h-68.266164zM341.329318 409.6h68.266164v68.266165h-68.266164z" fill="#61AD18" p-id="11527"></path><path d="M341.329318 477.864659h68.266164v68.266165h-68.266164zM341.329318 546.132329h68.266164v68.266165h-68.266164z" fill="#61AD18" p-id="11528"></path><path d="M341.329318 614.4h68.266164v68.266165h-68.266164z" fill="#231815" p-id="11529"></path><path d="M341.329318 682.667671h68.266164v68.266164h-68.266164z" fill="#FFDFD2" p-id="11530"></path><path d="M341.329318 750.932329h68.266164v68.266165h-68.266164zM341.329318 819.2h68.266164v68.266165h-68.266164z" fill="#FFFFFF" p-id="11531"></path><path d="M341.329318 887.464659h68.266164v68.266165h-68.266164z" fill="#FFDFD2" p-id="11532"></path><path d="M614.4 68.264659h68.266165v68.266165H614.4zM614.4 136.532329h68.266165v68.266165H614.4zM614.4 204.8h68.266165v68.266165H614.4zM614.4 273.067671h68.266165v68.266164H614.4z" fill="#61AD18" p-id="11533"></path><path d="M614.4 341.332329h68.266165v68.266165H614.4z" fill="#61AD18" p-id="11534"></path><path d="M614.4 409.6h68.266165v68.266165H614.4z" fill="#FFFFFF" p-id="11535"></path><path d="M614.4 477.864659h68.266165v68.266165H614.4zM614.4 546.132329h68.266165v68.266165H614.4z" fill="#FFFFFF" p-id="11536"></path><path d="M614.4 614.4h68.266165v68.266165H614.4zM614.4 682.667671h68.266165v68.266164H614.4z" fill="#231815" p-id="11537"></path><path d="M614.4 750.932329h68.266165v68.266165H614.4z" fill="#231815" p-id="11538"></path><path d="M614.4 819.2h68.266165v68.266165H614.4z" fill="#FFFFFF" p-id="11539"></path><path d="M614.4 887.464659h68.266165v68.266165H614.4z" fill="#FFDFD2" p-id="11540"></path><path d="M546.129318 0h68.266164v68.266165h-68.266164z" fill="#231815" p-id="11541"></path><path d="M409.6 68.264659h68.266165v68.266165H409.6z" fill="#61AD18" p-id="11542"></path><path d="M409.6 136.532329h68.266165v68.266165H409.6zM409.6 204.8h68.266165v68.266165H409.6zM409.6 273.067671h68.266165v68.266164H409.6z" fill="#FFFFFF" p-id="11543"></path><path d="M409.6 341.332329h68.266165v68.266165H409.6z" fill="#FFFFFF" p-id="11544"></path><path d="M409.6 409.6h68.266165v68.266165H409.6z" fill="#61AD18" p-id="11545"></path><path d="M409.6 477.864659h68.266165v68.266165H409.6zM409.6 546.132329h68.266165v68.266165H409.6z" fill="#61AD18" p-id="11546"></path><path d="M409.6 614.4h68.266165v68.266165H409.6zM409.6 682.667671h68.266165v68.266164H409.6z" fill="#231815" p-id="11547"></path><path d="M409.6 750.932329h68.266165v68.266165H409.6z" fill="#231815" p-id="11548"></path><path d="M409.6 819.2h68.266165v68.266165H409.6z" fill="#FFFFFF" p-id="11549"></path><path d="M409.6 887.464659h68.266165v68.266165H409.6z" fill="#FFDFD2" p-id="11550"></path><path d="M682.670682 68.264659h68.266165v68.266165h-68.266165z" fill="#231815" p-id="11551"></path><path d="M682.670682 136.532329h68.266165v68.266165h-68.266165z" fill="#FFFFFF" p-id="11552"></path><path d="M682.670682 204.8h68.266165v68.266165h-68.266165zM682.670682 273.067671h68.266165v68.266164h-68.266165z" fill="#61AD18" p-id="11553"></path><path d="M682.670682 341.332329h68.266165v68.266165h-68.266165zM682.670682 409.6h68.266165v68.266165h-68.266165z" fill="#FFFFFF" p-id="11554"></path><path d="M682.670682 477.864659h68.266165v68.266165h-68.266165zM682.670682 546.132329h68.266165v68.266165h-68.266165z" fill="#FFFFFF" p-id="11555"></path><path d="M682.670682 614.4h68.266165v68.266165h-68.266165z" fill="#231815" p-id="11556"></path><path d="M682.670682 682.667671h68.266165v68.266164h-68.266165z" fill="#FFDFD2" p-id="11557"></path><path d="M682.670682 750.932329h68.266165v68.266165h-68.266165zM682.670682 819.2h68.266165v68.266165h-68.266165z" fill="#FFFFFF" p-id="11558"></path><path d="M682.670682 887.464659h68.266165v68.266165h-68.266165z" fill="#FFDFD2" p-id="11559"></path><path d="M614.4 0h68.266165v68.266165H614.4z" fill="#231815" p-id="11560"></path><path d="M477.870682 68.264659h68.266165v68.266165h-68.266165z" fill="#61AD18" p-id="11561"></path><path d="M477.870682 136.532329h68.266165v68.266165h-68.266165zM477.870682 204.8h68.266165v68.266165h-68.266165zM477.870682 273.067671h68.266165v68.266164h-68.266165z" fill="#FFFFFF" p-id="11562"></path><path d="M477.870682 341.332329h68.266165v68.266165h-68.266165z" fill="#FFFFFF" p-id="11563"></path><path d="M477.870682 409.6h68.266165v68.266165h-68.266165z" fill="#61AD18" p-id="11564"></path><path d="M477.870682 477.864659h68.266165v68.266165h-68.266165zM477.870682 546.132329h68.266165v68.266165h-68.266165z" fill="#61AD18" p-id="11565"></path><path d="M477.870682 614.4h68.266165v68.266165h-68.266165z" fill="#231815" p-id="11566"></path><path d="M477.870682 682.667671h68.266165v68.266164h-68.266165z" fill="#FFDFD2" p-id="11567"></path><path d="M477.870682 750.932329h68.266165v68.266165h-68.266165zM477.870682 819.2h68.266165v68.266165h-68.266165z" fill="#FFFFFF" p-id="11568"></path><path d="M477.870682 887.464659h68.266165v68.266165h-68.266165z" fill="#FFDFD2" p-id="11569"></path><path d="M750.941365 68.264659h68.266164v68.266165h-68.266164z" fill="#231815" p-id="11570"></path><path d="M750.941365 136.532329h68.266164v68.266165h-68.266164z" fill="#FFFFFF" p-id="11571"></path><path d="M750.941365 204.8h68.266164v68.266165h-68.266164zM750.941365 273.067671h68.266164v68.266164h-68.266164z" fill="#61AD18" p-id="11572"></path><path d="M750.941365 341.332329h68.266164v68.266165h-68.266164zM750.941365 409.6h68.266164v68.266165h-68.266164z" fill="#FFFFFF" p-id="11573"></path><path d="M750.941365 477.864659h68.266164v68.266165h-68.266164zM750.941365 546.132329h68.266164v68.266165h-68.266164z" fill="#FFFFFF" p-id="11574"></path><path d="M750.941365 614.4h68.266164v68.266165h-68.266164zM750.941365 682.667671h68.266164v68.266164h-68.266164z" fill="#231815" p-id="11575"></path><path d="M750.941365 750.932329h68.266164v68.266165h-68.266164z" fill="#FFFFFF" p-id="11576"></path><path d="M750.941365 819.2h68.266164v68.266165h-68.266164z" fill="#FFDFD2" p-id="11577"></path><path d="M750.941365 887.464659h68.266164v68.266165h-68.266164zM819.2 136.532329h68.266165v68.266165H819.2z" fill="#231815" p-id="11578"></path></svg>